<mxfile host="app.diagrams.net" agent="Mozilla/5.0 (Windows NT 10.0; Win64; x64) AppleWebKit/537.36 (KHTML, like Gecko) Chrome/140.0.0.0 Safari/537.36 Edg/140.0.0.0" version="28.2.0">
  <diagram name="ページ1" id="VO2B68nZpeSKNJWuaMmZ">
    <mxGraphModel dx="1861" dy="570" grid="1" gridSize="10" guides="1" tooltips="1" connect="1" arrows="1" fold="1" page="1" pageScale="1" pageWidth="827" pageHeight="1169" math="0" shadow="0">
      <root>
        <mxCell id="0" />
        <mxCell id="1" parent="0" />
        <mxCell id="SX2NnGYp1cLI97t9g-Xs-1" value="&lt;font style=&quot;font-size: 18px;&quot;&gt;利用者&lt;/font&gt;" style="rounded=0;whiteSpace=wrap;html=1;" parent="1" vertex="1">
          <mxGeometry x="130" y="100" width="120" height="40" as="geometry" />
        </mxCell>
        <mxCell id="SX2NnGYp1cLI97t9g-Xs-2" value="&lt;font style=&quot;font-size: 18px;&quot;&gt;図書カード&lt;/font&gt;" style="rounded=0;whiteSpace=wrap;html=1;" parent="1" vertex="1">
          <mxGeometry x="130" y="210" width="120" height="40" as="geometry" />
        </mxCell>
        <mxCell id="SX2NnGYp1cLI97t9g-Xs-3" value="" style="endArrow=diamondThin;html=1;rounded=0;endFill=0;entryX=0.5;entryY=1;entryDx=0;entryDy=0;exitX=0.5;exitY=0;exitDx=0;exitDy=0;endSize=11;startSize=12;" parent="1" source="SX2NnGYp1cLI97t9g-Xs-2" target="SX2NnGYp1cLI97t9g-Xs-1" edge="1">
          <mxGeometry width="50" height="50" relative="1" as="geometry">
            <mxPoint x="140" y="210" as="sourcePoint" />
            <mxPoint x="190" y="160" as="targetPoint" />
          </mxGeometry>
        </mxCell>
        <mxCell id="SX2NnGYp1cLI97t9g-Xs-4" value="&lt;span style=&quot;font-size: 18px;&quot;&gt;ID&lt;/span&gt;" style="rounded=0;whiteSpace=wrap;html=1;" parent="1" vertex="1">
          <mxGeometry x="220" y="490" width="120" height="40" as="geometry" />
        </mxCell>
        <mxCell id="SX2NnGYp1cLI97t9g-Xs-5" value="&lt;span style=&quot;font-size: 18px;&quot;&gt;パスワード&lt;/span&gt;" style="rounded=0;whiteSpace=wrap;html=1;" parent="1" vertex="1">
          <mxGeometry x="340" y="490" width="120" height="40" as="geometry" />
        </mxCell>
        <mxCell id="SX2NnGYp1cLI97t9g-Xs-6" value="" style="endArrow=diamondThin;html=1;rounded=0;endFill=0;entryX=0.5;entryY=1;entryDx=0;entryDy=0;exitX=0.25;exitY=0;exitDx=0;exitDy=0;endSize=11;startSize=12;" parent="1" source="SX2NnGYp1cLI97t9g-Xs-4" target="SX2NnGYp1cLI97t9g-Xs-2" edge="1">
          <mxGeometry width="50" height="50" relative="1" as="geometry">
            <mxPoint x="110" y="340" as="sourcePoint" />
            <mxPoint x="110" y="270" as="targetPoint" />
          </mxGeometry>
        </mxCell>
        <mxCell id="SX2NnGYp1cLI97t9g-Xs-7" value="" style="endArrow=diamondThin;html=1;rounded=0;endFill=0;entryX=0.75;entryY=1;entryDx=0;entryDy=0;exitX=0.39;exitY=-0.01;exitDx=0;exitDy=0;endSize=11;startSize=12;exitPerimeter=0;" parent="1" source="SX2NnGYp1cLI97t9g-Xs-5" target="SX2NnGYp1cLI97t9g-Xs-2" edge="1">
          <mxGeometry width="50" height="50" relative="1" as="geometry">
            <mxPoint x="260" y="340" as="sourcePoint" />
            <mxPoint x="260" y="270" as="targetPoint" />
          </mxGeometry>
        </mxCell>
        <mxCell id="SX2NnGYp1cLI97t9g-Xs-9" value="&lt;span style=&quot;font-size: 18px;&quot;&gt;電子メールアドレス&lt;/span&gt;" style="rounded=0;whiteSpace=wrap;html=1;" parent="1" vertex="1">
          <mxGeometry x="120" y="490" width="100" height="40" as="geometry" />
        </mxCell>
        <mxCell id="SX2NnGYp1cLI97t9g-Xs-12" value="&lt;span style=&quot;font-size: 18px;&quot;&gt;氏名&lt;/span&gt;" style="rounded=0;whiteSpace=wrap;html=1;" parent="1" vertex="1">
          <mxGeometry x="-180" y="490" width="100" height="40" as="geometry" />
        </mxCell>
        <mxCell id="SX2NnGYp1cLI97t9g-Xs-13" value="&lt;span style=&quot;font-size: 18px;&quot;&gt;住所&lt;/span&gt;" style="rounded=0;whiteSpace=wrap;html=1;" parent="1" vertex="1">
          <mxGeometry x="-80" y="490" width="100" height="40" as="geometry" />
        </mxCell>
        <mxCell id="SX2NnGYp1cLI97t9g-Xs-14" value="&lt;span style=&quot;font-size: 18px;&quot;&gt;電話番号&lt;/span&gt;" style="rounded=0;whiteSpace=wrap;html=1;" parent="1" vertex="1">
          <mxGeometry x="20" y="490" width="100" height="40" as="geometry" />
        </mxCell>
        <mxCell id="SX2NnGYp1cLI97t9g-Xs-15" value="&lt;font style=&quot;font-size: 18px;&quot;&gt;図書&lt;/font&gt;" style="rounded=0;whiteSpace=wrap;html=1;" parent="1" vertex="1">
          <mxGeometry x="610" y="100" width="120" height="40" as="geometry" />
        </mxCell>
        <mxCell id="SX2NnGYp1cLI97t9g-Xs-16" value="" style="endArrow=none;html=1;rounded=0;exitX=1;exitY=0.5;exitDx=0;exitDy=0;entryX=0;entryY=0.5;entryDx=0;entryDy=0;" parent="1" source="SX2NnGYp1cLI97t9g-Xs-1" target="SX2NnGYp1cLI97t9g-Xs-15" edge="1">
          <mxGeometry width="50" height="50" relative="1" as="geometry">
            <mxPoint x="400" y="250" as="sourcePoint" />
            <mxPoint x="450" y="200" as="targetPoint" />
          </mxGeometry>
        </mxCell>
        <mxCell id="SX2NnGYp1cLI97t9g-Xs-18" value="&lt;font style=&quot;font-size: 18px;&quot;&gt;貸し出し期限&lt;/font&gt;" style="rounded=0;whiteSpace=wrap;html=1;" parent="1" vertex="1">
          <mxGeometry x="-280" y="330" width="120" height="40" as="geometry" />
        </mxCell>
        <mxCell id="SX2NnGYp1cLI97t9g-Xs-19" value="&lt;span style=&quot;font-size: 18px;&quot;&gt;貸し出し予約&lt;/span&gt;" style="rounded=0;whiteSpace=wrap;html=1;" parent="1" vertex="1">
          <mxGeometry x="-50" y="30" width="120" height="40" as="geometry" />
        </mxCell>
        <mxCell id="SX2NnGYp1cLI97t9g-Xs-21" value="" style="endArrow=diamondThin;html=1;rounded=0;endFill=0;entryX=0.75;entryY=1;entryDx=0;entryDy=0;exitX=0.5;exitY=0;exitDx=0;exitDy=0;endSize=11;startSize=12;" parent="1" source="SX2NnGYp1cLI97t9g-Xs-18" target="SX2NnGYp1cLI97t9g-Xs-39" edge="1">
          <mxGeometry width="50" height="50" relative="1" as="geometry">
            <mxPoint x="669" y="272" as="sourcePoint" />
            <mxPoint x="630" y="200" as="targetPoint" />
          </mxGeometry>
        </mxCell>
        <mxCell id="SX2NnGYp1cLI97t9g-Xs-22" value="" style="endArrow=diamondThin;html=1;rounded=0;endFill=0;entryX=0.333;entryY=1;entryDx=0;entryDy=0;exitX=0.914;exitY=0.08;exitDx=0;exitDy=0;endSize=11;startSize=12;entryPerimeter=0;exitPerimeter=0;" parent="1" source="SX2NnGYp1cLI97t9g-Xs-9" target="SX2NnGYp1cLI97t9g-Xs-2" edge="1">
          <mxGeometry width="50" height="50" relative="1" as="geometry">
            <mxPoint x="459" y="508.8" as="sourcePoint" />
            <mxPoint x="413.1999999999998" y="450" as="targetPoint" />
          </mxGeometry>
        </mxCell>
        <mxCell id="SX2NnGYp1cLI97t9g-Xs-23" value="" style="endArrow=diamondThin;html=1;rounded=0;endFill=0;exitX=1;exitY=0;exitDx=0;exitDy=0;endSize=11;startSize=12;entryX=0.175;entryY=1;entryDx=0;entryDy=0;entryPerimeter=0;" parent="1" source="SX2NnGYp1cLI97t9g-Xs-14" target="SX2NnGYp1cLI97t9g-Xs-2" edge="1">
          <mxGeometry width="50" height="50" relative="1" as="geometry">
            <mxPoint x="512" y="457" as="sourcePoint" />
            <mxPoint x="180" y="340" as="targetPoint" />
          </mxGeometry>
        </mxCell>
        <mxCell id="SX2NnGYp1cLI97t9g-Xs-24" value="" style="endArrow=diamondThin;html=1;rounded=0;endFill=0;entryX=0.122;entryY=1.02;entryDx=0;entryDy=0;exitX=1;exitY=0;exitDx=0;exitDy=0;endSize=11;startSize=12;entryPerimeter=0;" parent="1" source="SX2NnGYp1cLI97t9g-Xs-13" target="SX2NnGYp1cLI97t9g-Xs-2" edge="1">
          <mxGeometry width="50" height="50" relative="1" as="geometry">
            <mxPoint x="241" y="627" as="sourcePoint" />
            <mxPoint x="139" y="570" as="targetPoint" />
          </mxGeometry>
        </mxCell>
        <mxCell id="SX2NnGYp1cLI97t9g-Xs-25" value="" style="endArrow=diamondThin;html=1;rounded=0;endFill=0;entryX=0.08;entryY=1.04;entryDx=0;entryDy=0;endSize=11;startSize=12;entryPerimeter=0;" parent="1" source="SX2NnGYp1cLI97t9g-Xs-12" target="SX2NnGYp1cLI97t9g-Xs-2" edge="1">
          <mxGeometry width="50" height="50" relative="1" as="geometry">
            <mxPoint x="362" y="657" as="sourcePoint" />
            <mxPoint x="260" y="600" as="targetPoint" />
          </mxGeometry>
        </mxCell>
        <mxCell id="SX2NnGYp1cLI97t9g-Xs-28" value="&lt;font style=&quot;font-size: 18px;&quot;&gt;図書館&lt;/font&gt;" style="rounded=0;whiteSpace=wrap;html=1;" parent="1" vertex="1">
          <mxGeometry x="430" y="30" width="120" height="40" as="geometry" />
        </mxCell>
        <mxCell id="SX2NnGYp1cLI97t9g-Xs-29" value="検索、借りる" style="rounded=0;whiteSpace=wrap;html=1;fillColor=none;strokeColor=none;" parent="1" vertex="1">
          <mxGeometry x="370" y="70" width="120" height="60" as="geometry" />
        </mxCell>
        <mxCell id="SX2NnGYp1cLI97t9g-Xs-30" value="&lt;span style=&quot;font-size: 18px;&quot;&gt;著者&lt;/span&gt;" style="rounded=0;whiteSpace=wrap;html=1;" parent="1" vertex="1">
          <mxGeometry x="550" y="220" width="100" height="40" as="geometry" />
        </mxCell>
        <mxCell id="SX2NnGYp1cLI97t9g-Xs-31" value="&lt;span style=&quot;font-size: 18px;&quot;&gt;書名&lt;/span&gt;" style="rounded=0;whiteSpace=wrap;html=1;" parent="1" vertex="1">
          <mxGeometry x="450" y="220" width="100" height="40" as="geometry" />
        </mxCell>
        <mxCell id="SX2NnGYp1cLI97t9g-Xs-32" value="" style="endArrow=diamondThin;html=1;rounded=0;endFill=0;exitX=0.886;exitY=0.07;exitDx=0;exitDy=0;endSize=11;startSize=6;exitPerimeter=0;entryX=0.435;entryY=0.97;entryDx=0;entryDy=0;entryPerimeter=0;" parent="1" source="SX2NnGYp1cLI97t9g-Xs-30" target="SX2NnGYp1cLI97t9g-Xs-15" edge="1">
          <mxGeometry width="50" height="50" relative="1" as="geometry">
            <mxPoint x="672" y="477" as="sourcePoint" />
            <mxPoint x="800" y="150" as="targetPoint" />
          </mxGeometry>
        </mxCell>
        <mxCell id="SX2NnGYp1cLI97t9g-Xs-33" value="" style="endArrow=diamondThin;html=1;rounded=0;endFill=0;entryX=0.25;entryY=1;entryDx=0;entryDy=0;exitX=0.5;exitY=0;exitDx=0;exitDy=0;endSize=11;startSize=12;" parent="1" source="SX2NnGYp1cLI97t9g-Xs-31" target="SX2NnGYp1cLI97t9g-Xs-15" edge="1">
          <mxGeometry width="50" height="50" relative="1" as="geometry">
            <mxPoint x="572" y="457" as="sourcePoint" />
            <mxPoint x="470" y="400" as="targetPoint" />
          </mxGeometry>
        </mxCell>
        <mxCell id="SX2NnGYp1cLI97t9g-Xs-34" value="&lt;font style=&quot;font-size: 18px;&quot;&gt;貸し出し中か&lt;/font&gt;" style="rounded=0;whiteSpace=wrap;html=1;" parent="1" vertex="1">
          <mxGeometry x="770" y="220" width="120" height="40" as="geometry" />
        </mxCell>
        <mxCell id="SX2NnGYp1cLI97t9g-Xs-35" value="&lt;span style=&quot;font-size: 18px;&quot;&gt;どこの棚にあるか&lt;/span&gt;" style="rounded=0;whiteSpace=wrap;html=1;" parent="1" vertex="1">
          <mxGeometry x="650" y="220" width="120" height="40" as="geometry" />
        </mxCell>
        <mxCell id="SX2NnGYp1cLI97t9g-Xs-36" value="" style="endArrow=diamondThin;html=1;rounded=0;endFill=0;exitX=0.18;exitY=0.04;exitDx=0;exitDy=0;endSize=11;startSize=12;exitPerimeter=0;entryX=0.855;entryY=1.09;entryDx=0;entryDy=0;entryPerimeter=0;" parent="1" source="SX2NnGYp1cLI97t9g-Xs-34" target="SX2NnGYp1cLI97t9g-Xs-15" edge="1">
          <mxGeometry width="50" height="50" relative="1" as="geometry">
            <mxPoint x="480" y="500" as="sourcePoint" />
            <mxPoint x="820" y="120" as="targetPoint" />
          </mxGeometry>
        </mxCell>
        <mxCell id="SX2NnGYp1cLI97t9g-Xs-37" value="" style="endArrow=diamondThin;html=1;rounded=0;endFill=0;entryX=0.667;entryY=1;entryDx=0;entryDy=0;exitX=0.25;exitY=0;exitDx=0;exitDy=0;endSize=11;startSize=12;entryPerimeter=0;" parent="1" source="SX2NnGYp1cLI97t9g-Xs-35" target="SX2NnGYp1cLI97t9g-Xs-15" edge="1">
          <mxGeometry width="50" height="50" relative="1" as="geometry">
            <mxPoint x="540" y="480" as="sourcePoint" />
            <mxPoint x="630" y="450" as="targetPoint" />
          </mxGeometry>
        </mxCell>
        <mxCell id="SX2NnGYp1cLI97t9g-Xs-38" value="" style="endArrow=none;html=1;rounded=0;entryX=0;entryY=0.5;entryDx=0;entryDy=0;exitX=1;exitY=0.5;exitDx=0;exitDy=0;" parent="1" source="SX2NnGYp1cLI97t9g-Xs-39" target="SX2NnGYp1cLI97t9g-Xs-2" edge="1">
          <mxGeometry width="50" height="50" relative="1" as="geometry">
            <mxPoint x="-151.60009765625" y="230" as="sourcePoint" />
            <mxPoint x="350" y="160" as="targetPoint" />
          </mxGeometry>
        </mxCell>
        <mxCell id="SX2NnGYp1cLI97t9g-Xs-39" value="&lt;span style=&quot;font-size: 18px;&quot;&gt;借りている本&lt;/span&gt;" style="rounded=0;whiteSpace=wrap;html=1;" parent="1" vertex="1">
          <mxGeometry x="-260" y="210" width="100" height="40" as="geometry" />
        </mxCell>
        <mxCell id="SX2NnGYp1cLI97t9g-Xs-40" value="&lt;span style=&quot;font-size: 18px;&quot;&gt;書名&lt;/span&gt;" style="rounded=0;whiteSpace=wrap;html=1;" parent="1" vertex="1">
          <mxGeometry x="-520" y="330" width="120" height="40" as="geometry" />
        </mxCell>
        <mxCell id="SX2NnGYp1cLI97t9g-Xs-41" value="&lt;span style=&quot;font-size: 18px;&quot;&gt;著者&lt;/span&gt;" style="rounded=0;whiteSpace=wrap;html=1;" parent="1" vertex="1">
          <mxGeometry x="-400" y="330" width="120" height="40" as="geometry" />
        </mxCell>
        <mxCell id="SX2NnGYp1cLI97t9g-Xs-42" value="" style="endArrow=diamondThin;html=1;rounded=0;endFill=0;entryX=0;entryY=1;entryDx=0;entryDy=0;exitX=0.858;exitY=-0.06;exitDx=0;exitDy=0;endSize=11;startSize=12;exitPerimeter=0;" parent="1" source="SX2NnGYp1cLI97t9g-Xs-40" target="SX2NnGYp1cLI97t9g-Xs-39" edge="1">
          <mxGeometry width="50" height="50" relative="1" as="geometry">
            <mxPoint x="-375" y="280" as="sourcePoint" />
            <mxPoint x="-390" y="240" as="targetPoint" />
          </mxGeometry>
        </mxCell>
        <mxCell id="SX2NnGYp1cLI97t9g-Xs-43" value="" style="endArrow=diamondThin;html=1;rounded=0;endFill=0;entryX=0.334;entryY=0.96;entryDx=0;entryDy=0;exitX=0.652;exitY=0.02;exitDx=0;exitDy=0;endSize=11;startSize=12;entryPerimeter=0;exitPerimeter=0;" parent="1" source="SX2NnGYp1cLI97t9g-Xs-41" target="SX2NnGYp1cLI97t9g-Xs-39" edge="1">
          <mxGeometry width="50" height="50" relative="1" as="geometry">
            <mxPoint x="-270" y="398" as="sourcePoint" />
            <mxPoint x="-193" y="360" as="targetPoint" />
          </mxGeometry>
        </mxCell>
        <mxCell id="SX2NnGYp1cLI97t9g-Xs-44" value="&lt;span style=&quot;font-size: 18px;&quot;&gt;あと何冊借りれるか&lt;/span&gt;" style="rounded=0;whiteSpace=wrap;html=1;" parent="1" vertex="1">
          <mxGeometry x="460" y="490" width="120" height="40" as="geometry" />
        </mxCell>
        <mxCell id="SX2NnGYp1cLI97t9g-Xs-45" value="" style="endArrow=diamondThin;html=1;rounded=0;endFill=0;entryX=0.935;entryY=1.02;entryDx=0;entryDy=0;exitX=0.368;exitY=-0.02;exitDx=0;exitDy=0;endSize=11;startSize=12;exitPerimeter=0;entryPerimeter=0;" parent="1" source="SX2NnGYp1cLI97t9g-Xs-44" target="SX2NnGYp1cLI97t9g-Xs-2" edge="1">
          <mxGeometry width="50" height="50" relative="1" as="geometry">
            <mxPoint x="260" y="480" as="sourcePoint" />
            <mxPoint x="190" y="370" as="targetPoint" />
          </mxGeometry>
        </mxCell>
        <mxCell id="SX2NnGYp1cLI97t9g-Xs-47" value="&lt;span style=&quot;font-size: 18px;&quot;&gt;必要事項&lt;/span&gt;" style="rounded=0;whiteSpace=wrap;html=1;" parent="1" vertex="1">
          <mxGeometry x="-210" y="30" width="120" height="40" as="geometry" />
        </mxCell>
        <mxCell id="SX2NnGYp1cLI97t9g-Xs-49" value="" style="endArrow=diamondThin;html=1;rounded=0;endFill=0;entryX=0;entryY=0.5;entryDx=0;entryDy=0;exitX=1;exitY=0.5;exitDx=0;exitDy=0;endSize=11;startSize=12;" parent="1" source="SX2NnGYp1cLI97t9g-Xs-47" target="SX2NnGYp1cLI97t9g-Xs-19" edge="1">
          <mxGeometry width="50" height="50" relative="1" as="geometry">
            <mxPoint x="640" y="450" as="sourcePoint" />
            <mxPoint x="640" y="370" as="targetPoint" />
          </mxGeometry>
        </mxCell>
        <mxCell id="SX2NnGYp1cLI97t9g-Xs-52" value="" style="endArrow=none;html=1;rounded=0;entryX=1;entryY=0.5;entryDx=0;entryDy=0;exitX=0;exitY=0;exitDx=0;exitDy=0;" parent="1" source="SX2NnGYp1cLI97t9g-Xs-1" target="SX2NnGYp1cLI97t9g-Xs-19" edge="1">
          <mxGeometry width="50" height="50" relative="1" as="geometry">
            <mxPoint x="40" y="250" as="sourcePoint" />
            <mxPoint x="90" y="200" as="targetPoint" />
          </mxGeometry>
        </mxCell>
        <mxCell id="SX2NnGYp1cLI97t9g-Xs-53" value="連絡を受ける" style="rounded=0;whiteSpace=wrap;html=1;fillColor=none;strokeColor=none;" parent="1" vertex="1">
          <mxGeometry x="80" y="40" width="120" height="60" as="geometry" />
        </mxCell>
        <mxCell id="SX2NnGYp1cLI97t9g-Xs-55" value="&lt;span style=&quot;font-size: 18px;&quot;&gt;本のID&lt;/span&gt;" style="rounded=0;whiteSpace=wrap;html=1;" parent="1" vertex="1">
          <mxGeometry x="-160" y="330" width="120" height="40" as="geometry" />
        </mxCell>
        <mxCell id="SX2NnGYp1cLI97t9g-Xs-56" value="" style="endArrow=diamondThin;html=1;rounded=0;endFill=0;entryX=0.926;entryY=1.04;entryDx=0;entryDy=0;exitX=0.392;exitY=-0.1;exitDx=0;exitDy=0;endSize=11;startSize=12;entryPerimeter=0;exitPerimeter=0;" parent="1" source="SX2NnGYp1cLI97t9g-Xs-55" target="SX2NnGYp1cLI97t9g-Xs-39" edge="1">
          <mxGeometry width="50" height="50" relative="1" as="geometry">
            <mxPoint x="-100" y="370" as="sourcePoint" />
            <mxPoint x="-65" y="290" as="targetPoint" />
          </mxGeometry>
        </mxCell>
      </root>
    </mxGraphModel>
  </diagram>
</mxfile>
